Coordinates
version=1
nRows=18
nColumns=32
inDegrees=yes

Units are S.I. units (second, meters, Newtons, ...)
If the header above contains a line with 'inDegrees', this indicates whether rotational values are in degrees (yes) or radians (no).

endheader
time	pelvis_tilt	pelvis_list	pelvis_rotation	pelvis_tx	pelvis_ty	pelvis_tz	hip_flexion_r	hip_adduction_r	hip_rotation_r	knee_angle_r	knee_adduction_r	med_cond_adduction_r	lat_cond_adduction_r	patella_r_constrained_knee_angle	ankle_angle_r	subtalar_angle_r	mtp_angle_r	hip_flexion_l	hip_adduction_l	hip_rotation_l	knee_angle_l	knee_adduction_l	med_cond_adduction_l	lat_cond_adduction_l	patella_l_constrained_knee_angle	ankle_angle_l	subtalar_angle_l	mtp_angle_l	lumbar_extension	lumbar_bending	lumbar_rotation
      1.98500000	    -22.21710669	      1.18992331	     -6.34713275	      0.14350114	      0.77456386	     -1.17786384	     59.72079846	    -29.81722389	    -11.76239629	    -55.46157927	      4.56847069	      0.00000000	      0.00000000	     -0.96798717	      7.43295656	     11.92063046	      0.00000000	     54.34800698	    -40.24219885	    -23.97860277	    -56.01411807	      3.30163931	      0.00000000	      0.00000000	     -0.97763079	      7.20649554	     18.43117527	     -0.00000000	     -3.20057015	      0.94005826	      2.86731825
      1.99000000	    -21.97323414	      1.53475853	     -6.31813635	      0.14482177	      0.77963925	     -1.17795941	     58.83082359	    -29.85839558	    -11.75718549	    -54.25118059	      4.60674421	     -0.00000000	     -0.00000000	     -0.94686172	      6.91611163	     11.70606416	     -0.00000000	     52.87100528	    -39.52840353	    -25.20752762	    -54.67317266	      3.11174525	      0.00000000	      0.00000000	     -0.95422688	      6.76170993	     18.39212898	      0.00000000	     -3.20208003	      0.64075797	      3.00338204
      1.99500000	    -21.75381144	      1.41994192	     -6.23470154	      0.14621473	      0.78469026	     -1.17836323	     57.56505346	    -29.61407448	    -12.42856023	    -52.91094525	      4.47576283	     -0.00000000	     -0.00000000	     -0.92347020	      6.38951618	     11.50223967	     -0.00000000	     51.79976713	    -39.12252603	    -25.69761382	    -53.41887059	      3.07514961	      0.00000000	      0.00000000	     -0.93233517	      6.29276864	     18.32175072	      0.00000000	     -3.21950310	      0.76355650	      2.74960610
      2.00000000	    -21.50166557	      1.57680282	     -6.23912244	      0.14761234	      0.78966573	     -1.17843102	     56.51395785	    -29.45886677	    -12.66392600	    -51.62295175	      4.40189491	      0.00000000	      0.00000000	     -0.90099048	      5.91660090	     11.29422318	      0.00000000	     50.44171506	    -38.56631178	    -26.59242692	    -52.07458846	      3.00238693	     -0.00000000	     -0.00000000	     -0.90887303	      5.84499732	     18.26122322	     -0.00000000	     -3.23988109	      0.57510331	      2.71312232
      2.00500000	    -21.28106512	      1.79750820	     -6.19552381	      0.14898392	      0.79443309	     -1.17863617	     55.54988447	    -29.41556250	    -12.85406858	    -50.37530375	      4.35695222	      0.00000000	     -0.00000000	     -0.87921491	      5.37498225	     11.04373624	     -0.00000000	     49.16854074	    -37.89754912	    -27.53211130	    -50.75826640	      2.85034844	      0.00000000	     -0.00000000	     -0.88589887	      5.36330463	     18.21102709	      0.00000000	     -3.21676598	      0.37090651	      2.71711556
      2.01000000	    -21.03545160	      1.89802877	     -6.15503198	      0.15042271	      0.79918029	     -1.17889181	     54.45149727	    -29.27430720	    -13.22505172	    -49.08301245	      4.23730936	     -0.00000000	     -0.00000000	     -0.85666017	      4.89406947	     10.84963980	      0.00000000	     47.94919581	    -37.32970341	    -28.29375187	    -49.46110730	      2.76939121	     -0.00000000	     -0.00000000	     -0.86325917	      4.90184639	     18.14435599	     -0.00000000	     -3.23014129	      0.24885775	      2.62000118
      2.01500000	    -20.79101500	      2.16348316	     -6.11203993	      0.15183622	      0.80382501	     -1.17911035	     53.48442364	    -29.29535605	    -13.30700380	    -47.82921466	      4.28989248	     -0.00000000	      0.00000000	     -0.83477727	      4.34318931	     10.55475160	      0.00000000	     46.65981349	    -36.55560285	    -29.25976250	    -48.06997881	      2.52387737	      0.00000000	      0.00000000	     -0.83897940	      4.43538885	     18.11599978	      0.00000000	     -3.23509095	      0.00629404	      2.61951615
      2.02000000	    -20.53213714	      2.17074594	     -6.06476339	      0.15335755	      0.80843941	     -1.17936186	     52.30877025	    -29.08428721	    -13.83390302	    -46.52376608	      4.11052847	      0.00000000	      0.00000000	     -0.81199290	      3.84108166	     10.40915283	     -0.00000000	     45.50774551	    -36.03797496	    -29.86734105	    -46.76007513	      2.44039081	     -0.00000000	     -0.00000000	     -0.81611727	      3.96273841	     18.04869861	      0.00000000	     -3.26943674	     -0.05928090	      2.39404123
      2.02500000	    -20.26500417	      2.48297226	     -6.00817174	      0.15480624	      0.81292595	     -1.17966318	     51.33301798	    -29.15452580	    -13.87369162	    -45.25466341	      4.15800652	      0.00000000	      0.00000000	     -0.78984288	      3.30105071	     10.11404550	      0.00000000	     44.23096723	    -35.17381668	    -30.83269883	    -45.36547861	      2.17521362	     -0.00000000	     -0.00000000	     -0.79177697	      3.46933911	     18.02020676	     -0.00000000	     -3.30133736	     -0.32344093	      2.46393724
      2.03000000	    -19.96283867	      2.40135395	     -5.93648562	      0.15637443	      0.81743694	     -1.18003220	     50.03540323	    -28.89912700	    -14.52311961	    -43.92149487	      3.96179314	     -0.00000000	     -0.00000000	     -0.76657470	      2.79242740	     10.01752028	      0.00000000	     43.12512115	    -34.69564882	    -31.31070078	    -44.07251207	      2.09228386	     -0.00000000	     -0.00000000	     -0.76921045	      3.00179865	     17.94850042	      0.00000000	     -3.39919491	     -0.26592911	      2.20011499
      2.03500000	    -19.74380953	      2.85270463	     -5.89012873	      0.15779587	      0.82154551	     -1.18023973	     49.23593458	    -29.07348796	    -14.40249487	    -42.71705678	      4.01344491	     -0.00000000	     -0.00000000	     -0.74555329	      2.24724259	      9.65259555	     -0.00000000	     41.89055671	    -33.69884181	    -32.37051433	    -42.64323725	      1.79123848	      0.00000000	      0.00000000	     -0.74426489	      2.39537180	     17.93392374	     -0.00000000	     -3.34839237	     -0.68332746	      2.34533289
      2.04000000	    -19.39717638	      2.57200157	     -5.80195035	      0.15947684	      0.82598207	     -1.18069580	     47.74016454	    -28.65843898	    -15.32280194	    -41.31612775	      3.75119344	      0.00000000	      0.00000000	     -0.72110246	      1.73214860	      9.61032776	      0.00000000	     40.84827517	    -33.38469783	    -32.59421441	    -41.39049894	      1.74896051	     -0.00000000	     -0.00000000	     -0.72240049	      1.99905308	     17.87674030	     -0.00000000	     -3.52597566	     -0.49252941	      1.87389453
      2.04500000	    -19.13843778	      3.11717471	     -5.78025246	      0.16091725	      0.82990192	     -1.18088200	     46.98844626	    -28.93498302	    -15.08016511	    -40.17464409	      3.85066084	     -0.00000000	     -0.00000000	     -0.70117982	      1.20939864	      9.28071997	      0.00000000	     39.56341065	    -32.25661256	    -33.70145886	    -39.90829108	      1.40756065	      0.00000000	      0.00000000	     -0.69653108	      1.49427273	     17.84445489	      0.00000000	     -3.50239187	     -0.97715551	      2.13651367
      2.05000000	    -18.83654047	      3.26143980	     -5.69493905	      0.16248427	      0.83389298	     -1.18124314	     45.86415352	    -28.90098119	    -15.43281793	    -38.91472024	      3.77218918	     -0.00000000	     -0.00000000	     -0.67919000	      0.70015458	      9.12105571	      0.00000000	     38.44594427	    -31.49072190	    -34.31602218	    -38.53399901	      1.20099537	      0.00000000	      0.00000000	     -0.67254516	      0.98729035	     17.79492393	      0.00000000	     -3.57690218	     -1.16491192	      1.95040294
      2.05500000	    -18.52465564	      3.32659522	     -5.62584859	      0.16406389	      0.83780164	     -1.18158701	     44.68685404	    -28.77769134	    -15.86414109	    -37.63561518	      3.66113010	      0.00000000	      0.00000000	     -0.65686540	      0.17609605	      8.93766691	      0.00000000	     37.35248220	    -30.81808490	    -34.84306170	    -37.17880745	      1.03223191	     -0.00000000	     -0.00000000	     -0.64889260	      0.48211134	     17.75116570	      0.00000000	     -3.68143263	     -1.16697998	      1.92839805
      2.06000000	    -18.13678501	      3.30998056	     -5.52302456	      0.16575924	      0.84176404	     -1.18201579	     43.35520444	    -28.63407596	    -16.49011147	    -36.35118361	      3.51292623	      0.00000000	     -0.00000000	     -0.63444784	     -0.31725227	      8.88972889	     -0.00000000	     36.21527228	    -30.19511508	    -35.25033516	    -35.82500404	      0.90364016	      0.00000000	      0.00000000	     -0.62526428	      0.00216952	     17.68622183	     -0.00000000	     -3.88015751	     -1.11837350	      1.77271056
      2.06500000	    -17.78868361	      2.75179420	     -5.27088785	      0.16747036	      0.84562484	     -1.18287686	     41.63996474	    -28.02345001	    -17.76578089	    -34.86526596	      3.19086124	      0.00000000	      0.00000000	     -0.60851369	     -0.85987938	      8.85167929	      0.00000000	     35.45250723	    -30.10360737	    -35.11198103	    -34.73357818	      0.87248165	      0.00000000	      0.00000000	     -0.60621530	     -0.44748835	     17.66729823	     -0.00000000	     -4.06501268	     -0.76176734	      0.79332230
      2.07000000	    -17.57275498	      3.56115004	     -5.34626002	      0.16881440	      0.84872933	     -1.18277099	     41.18623750	    -28.52661395	    -17.17267281	    -33.89448761	      3.37119655	      0.00000000	      0.00000000	     -0.59157041	     -1.33460746	      8.46494216	     -0.00000000	     34.18967325	    -28.68404242	    -36.22452720	    -33.11802181	      0.50269144	      0.00000000	      0.00000000	     -0.57801852	     -1.02193078	     17.59671431	      0.00000000	     -3.99487565	     -1.33449824	      1.60527401
